<svg xmlns="http://www.w3.org/2000/svg" width="63.906" height="55.93" viewBox="0 0 63.906 55.93">
  <metadata><?xpacket begin="﻿" id="W5M0MpCehiHzreSzNTczkc9d"?>
<x:xmpmeta xmlns:x="adobe:ns:meta/" x:xmptk="Adobe XMP Core 5.6-c138 79.159824, 2016/09/14-01:09:01        ">
   <rdf:RDF xmlns:rdf="http://www.w3.org/1999/02/22-rdf-syntax-ns#">
      <rdf:Description rdf:about=""/>
   </rdf:RDF>
</x:xmpmeta>
                                                                                                    
                                                                                                    
                                                                                                    
                                                                                                    
                                                                                                    
                                                                                                    
                                                                                                    
                                                                                                    
                                                                                                    
                                                                                                    
                                                                                                    
                                                                                                    
                                                                                                    
                                                                                                    
                                                                                                    
                                                                                                    
                                                                                                    
                                                                                                    
                                                                                                    
                                                                                                    
                           
<?xpacket end="w"?></metadata>
<defs>
    <style>
      .cls-1 {
        fill: #ac9455;
        fill-rule: evenodd;
      }
    </style>
  </defs>
  <path id="Quality_Icon" data-name="Quality Icon" class="cls-1" d="M808.539,1401.02a0.772,0.772,0,0,1-.216.53,0.74,0.74,0,0,1-1.048,0l-0.138-.14-7.252.34-0.054,7.92a0.712,0.712,0,0,1,.011.17,0.077,0.077,0,0,1,0,.02,0.734,0.734,0,0,1-.524.73,1.3,1.3,0,0,1-.2.01H799.1a0.514,0.514,0,0,1-.171-0.04,0.422,0.422,0,0,1-.15-0.05,0.051,0.051,0,0,1-.029-0.02,0.626,0.626,0,0,1-.165-0.11l-12.456-12.62a21.836,21.836,0,0,1-19.52.48l-11.9,12.05a0.716,0.716,0,0,1-.6.31c-0.019,0-.036-0.01-0.055-0.01a0.583,0.583,0,0,1-.132,0c-0.023-.01-0.039-0.03-0.06-0.04a0.441,0.441,0,0,1-.145-0.07,0.275,0.275,0,0,1-.072-0.05c-0.026-.02-0.056-0.03-0.08-0.05s-0.014-.06-0.032-0.08a0.751,0.751,0,0,1-.142-0.34,0.66,0.66,0,0,1,.018-0.26c0-.01,0-0.02,0-0.03l-0.053-7.6-7.49-.49a0.7,0.7,0,0,1-1.161-.7,0.72,0.72,0,0,1,.517-0.75l11.148-11.3a22.523,22.523,0,1,1,39.539-.92l12.295,12.46a0.5,0.5,0,0,1,.364.62A0.1,0.1,0,0,0,808.539,1401.02Zm-32.627-6.6a16.937,16.937,0,1,1,16.7-16.93A16.818,16.818,0,0,1,775.912,1394.42Zm-0.744-23.56h2.906v13.25h-2.906v-13.25Z" transform="translate(-744.688 -1354.66)"/>
</svg>
